<?xml version="1.0" encoding="UTF-8"?>
<svg id="Capa_1" data-name="Capa 1" xmlns="http://www.w3.org/2000/svg" viewBox="0 0 416.21 577.25">
  <defs>
    <style>
      .cls-1 {
        stroke: #000;
        stroke-miterlimit: 10;
        stroke-width: .72px;
      }

      .cls-2, .cls-3, .cls-4 {
        stroke-width: 0px;
      }

      .cls-3 {
        fill: none;
      }

      .cls-4 {
        fill: #fff;
      }
    </style>
  </defs>
  <g>
    <path class="cls-2" d="m15.62,576.99c65.53.12,131.06.28,196.59.26,65.08-.02,130.15-.23,195.23-.41,2.8,0,5.61-.51,8.77-.82-.25-4.38-.19-8-.71-11.53-3.47-23.22-6.75-46.48-10.69-69.63-4.79-28.18-13.15-55.31-25.46-81.17-7.5-15.76-19.05-27.39-35.16-34.12-19.79-8.26-39.66-16.34-59.63-24.13-6.58-2.56-11.99-6.01-15.77-12.06-2.87-4.59-6.1-8.96-9.19-13.42-1.41-2.04-2.62-4.31-4.39-5.99-1.72-1.62-4.03-2.61-6.69-4.26-.3-11.95-.53-24.13-.97-36.3-.17-4.76,1.25-7.75,5.89-10.13,10.91-5.59,19.13-14.25,25.04-25.02,4.71-8.58,7.69-17.8,9.89-27.3,1.01-4.35,2.08-8.68,3.15-13.11,1.32-.12,2.21-.38,3.06-.26,10.69,1.42,18.65-3.44,24.23-11.78,8.95-13.37,10.64-28.15,5.65-43.42-2.41-7.38-7.17-12.54-15.8-12.43-.84.01-1.68-.43-3.55-.94.41-.53.71-.97,1.04-1.44-6.28-1.69-11.7-6.34-13.79-14.65-.02-.07-.04-.14-.06-.21-2.37-2.43-4.56-4.9-6.76-7.29-1.1,1.95-2.47,3.76-4.05,5.35.01.11,0,.23.02.34.31,1.96.69,3.9.91,5.87.05.44.07.89.1,1.34.21,1.13.31,2.25.26,3.36.04.46.05.92.11,1.37-.04-.27-.07-.55-.11-.82.1.67.09,1.28,0,1.88.02.34.04.68.04,1.05-.12,25.87-2.9,51.37-10.7,76.15-2.45,7.76-5.79,15.11-11.58,21.83-2.64-1.56-5.13-2.97-7.57-4.47-17.42-10.72-35.92-17.74-56.77-17.49-12.98.15-24.95,3.43-36.09,9.98-1.34.79-2.69,1.54-4.58,2.63-4.9-6.77-8.11-14.18-10.81-21.76-7.07-19.8-9.75-40.41-9.09-61.28.44-13.94,2.62-27.84,4.08-41.74.11-1.07.43-2.14.81-3.52,0-.67.03-1.34.1-2-15.24,8.28-13.42,23.79-21.65,37.74-1.84,3.12-4.18,5.45-6.77,7.11.05.29.1.57.15.86-1.45.33-2.28.64-3.08.7-2.29.97-4.71,1.44-7.16,1.55-4.72,2.11-7.67,6.33-9.36,12.1-4.16,14.17-2.98,27.89,4.68,40.49,5.59,9.19,13.59,15.11,25.3,13.42.88-.13,1.79-.02,3.49-.02,1.16,4.32,2.29,8.19,3.24,12.11,5.93,24.35,15.99,46.06,37.83,60.53,1.52,1.01,2.72,3.75,2.68,5.65-.22,10.61-.78,21.22-1.45,31.81-.1,1.59-1.17,3.32-2.23,4.63-6.35,7.92-13.06,15.55-19.15,23.66-3,4-6.52,6.51-11.09,8.33-20.54,8.2-40.92,16.82-61.48,24.99-17.58,6.99-29.96,19.33-37.18,36.48-6.29,14.96-12.45,30.1-16.94,45.66-10.36,35.91-14.87,72.97-19.35,109.98"/>
    <path class="cls-2" d="m303.47,166.09c-2.62,4.05-5.12,8.18-8.35,12.06-.05-7.91-.47-15.78,2.47-23.14,2.25-5.64,6.01-10.35,12.7-10.79,4.7-.31,9.11,4.65,10.95,12.23,3.11,12.83,1.67,25.21-5.38,36.5-4.46,7.14-10.95,11.3-19.83,10.52-.67-.06-1.34-.23-1.97-.46-.41-.14-.74-.48-1.41-.92-.99-6.59.86-12.69,4.51-18.32,5.04-7.76,10.19-15.44,15.25-23.19.69-1.06,1.09-2.32,2.06-4.42q-5.25,1.09-11,9.92Z"/>
    <path class="cls-2" d="m110.14,201.07c-3.77-3.05-7.53-6.63-9.93-10.76-6.27-10.83-7.14-22.67-3.94-34.68,1.43-5.35,3.9-10.31,10.24-11.29,4.76-.73,9.81,3.18,12.67,9.47.56,1.22,1.13,2.51,1.3,3.81.83,6.33,1.53,12.67,2.27,19.01l-1.52.59c-2.51-3.85-4.85-7.83-7.57-11.52-2.64-3.58-3.68-8.76-10.24-10.25,1.02,2.36,1.5,3.96,2.35,5.32,4.77,7.64,9.62,15.24,14.48,22.83,3.51,5.48,4.66,11.56,5.08,18.36-5.72,2.85-10.88,2.6-15.19-.89Z"/>
    <path class="cls-2" d="m179.78,223.13c1.61-2.83,6.05-3.66,10.4-1.19,8.25,4.69,16.94,7.18,26.41,7.46,3.12.09,6.85.88,7.47,4.6.63,3.8-2.8,5.54-5.74,6.56-3.56,1.24-7.39,1.73-11.1,2.54-9.86-.47-18.32-3.59-24.86-10.97-2.19-2.47-4.7-5.25-2.57-9Z"/>
    <path class="cls-2" d="m175.01,283.65c23.09,4.68,45.48,3.21,68.09-5.23.48,14.85.93,28.85,1.42,43.94-24.16.59-47.48,1.17-71.71,1.77.76-13.89,1.46-26.8,2.21-40.48Z"/>
    <path class="cls-2" d="m209.79,456.83c3.14-.52,5.46-1.69,5.83-5.4.67-6.61-1.85-9.13-8.61-8.08-4.9.76-9.78,1.69-14.67,2.5-.41.07-.87-.15-2.12-.4-.7-4.5-1.07-9.4-2.29-14.07-2.01-7.68-.23-14.52,2.91-21.52,3.69-8.22,6.58-16.8,9.97-25.17.77-1.9.79-4.66,4.74-4.89-.55,2.38-1.01,4.47-1.52,6.55-1.87,7.67-3.77,15.33-5.65,22.99-.38,1.56-.93,3.53,1.28,3.71.9.07,2.52-1.69,2.86-2.89,1.66-5.81,3-11.71,4.45-17.58.47-.02.94-.03,1.42-.05.84,4.46,1.58,8.94,2.54,13.38.89,4.11.51,8.82,5.16,12.75,1.47-5.41-.25-9.42-.81-13.46-.58-4.24-1.37-8.46-2.05-12.69-.66-4.12-1.29-8.25-1.94-12.37.41-.18.83-.36,1.24-.54.81.81,2.05,1.47,2.37,2.44,3.44,10.27,6.86,20.55,9.96,30.92.66,2.23.37,4.92-.1,7.28-5.23,26.33-10.57,52.64-15.88,78.96-1.56,7.74-3.11,15.48-4.72,23.21-.44,2.12-1.09,4.2-2.65,6.22-3.12-22.69-6.23-45.38-9.45-68.81,6.28-1.06,12-2.05,17.72-3Z"/>
    <path class="cls-2" d="m191.37,453.26c-.23-.64.61-2.37,1.26-2.54,5.94-1.53,11.93-2.89,17.91-3.12,1.13,2.99-.39,4.04-2.22,4.44-4.78,1.04-9.59,1.94-14.42,2.67-.8.12-2.27-.73-2.53-1.45Z"/>
    <path class="cls-2" d="m180.33,369.76c-2.27-4.37-5.95-31.17-5.46-41.26h30.46c-1.05,5.23-19.42,35.64-25,41.26Z"/>
    <path class="cls-2" d="m209.4,332.25c4.96,9.59,9.65,17.76,13.44,26.32,2.47,5.58-3.65,14.79-9.93,16.2-8.78,1.97-19.06-6.29-18.81-15.31.05-1.68.98-3.46,1.88-4.98,4.1-6.96,8.34-13.85,13.42-22.24Z"/>
    <path class="cls-2" d="m183.08,375.22c1.76-3.61,4.17-6.9,6.58-10.78,4.09,3.79,6.04,8.29,8.15,12.6.5,1.02.11,2.71-.34,3.91-3.29,8.89-6.69,17.73-10.1,26.57-.12.32-.72.45-2.14,1.29-1.41-9.08-2.95-17.51-3.91-26-.28-2.45.65-5.3,1.77-7.6Z"/>
    <path class="cls-2" d="m219.38,381.6c-.46-1.54-.22-3.74.59-5.11,1.91-3.24,4.35-6.16,6.92-9.67,4.47,5.77,7.18,11.18,5.33,18.29-1.62,6.22-2.56,12.6-3.81,18.92-.61-.02-1.22-.04-1.83-.06-2.43-7.45-4.98-14.86-7.2-22.37Z"/>
    <path class="cls-2" d="m212.5,328.01c10.21-.86,20.11-1.1,31.18-1.09-2.88,14.23-5.59,27.59-8.37,41.32-4.39-3.64-16.6-25.35-22.81-40.23Z"/>
    <path class="cls-2" d="m130.02,416.88c4.81-19.25,9.42-38.56,14.39-57.77.88-3.39,2.78-6.68,4.85-9.56,4.99-6.96,10.34-13.68,15.6-20.45.78-1,1.89-1.73,4.05-3.67.81,5.61,1.43,9.82,2.02,14.03,2.48,17.65,4.86,35.32,7.49,52.94.75,5.05-.07,9.04-3.93,12.77-6.97,6.74-13.65,13.8-20.15,21-2.94,3.26-5.84,3.55-9.51,1.83-3.88-1.81-7.84-3.46-11.74-5.23-2.53-1.15-3.83-2.86-3.07-5.9Z"/>
    <path class="cls-2" d="m7.75,552.83c4.41-26.24,8.49-52.54,13.64-78.63,3.9-19.74,11.18-38.54,19.53-56.84,7.85-17.2,20.31-29.65,38.53-35.79,1.02-.34,2.1-.52,3.15-.78,1.27,5.28-5.08,183.05-6.81,191.7-8.43,1.24-65.15.94-70.42-.49"/>
    <path class="cls-2" d="m196.31,562.99c-1.41-1.49-2.4-2.25-3.04-3.24-19.89-30.95-39.74-61.92-59.6-92.9-.97-1.52-1.85-3.11-2.9-4.57-1.75-2.44-1.4-4.41.68-6.56,15.26-15.7,30.45-31.49,45.68-47.22.59-.61,1.41-1.01,2.88-2.04.84,5.21,1.66,9.78,2.29,14.38,5.42,39.57,10.77,79.15,16.23,118.71,1.07,7.73.15,15.16-2.23,23.43Z"/>
    <path class="cls-2" d="m199.85,572.56c10.23-57.44,22.23-114.46,33.05-171.87,5.13,2.41,49.78,43.91,56.81,52.51-2.56,6.5-83.95,115.92-89.86,119.36Z"/>
    <path class="cls-2" d="m271.66,429.32c-3.55-3.27-6.72-6.12-9.81-9.05-7.54-7.13-14.84-14.53-22.65-21.36-3.81-3.33-4.47-6.77-3.52-11.35,3.44-16.56,6.7-33.15,10.04-49.73.75-3.72,1.55-7.43,2.32-11.14.6-.3,1.2-.61,1.8-.91,1.53,1.38,3.33,2.55,4.53,4.17,4.96,6.71,9.82,13.51,14.54,20.39,1.64,2.4,3.28,4.99,4.08,7.74,5.77,19.89,11.33,39.83,17.13,60.37-6.32,3.72-12.25,7.21-18.45,10.86Z"/>
    <path class="cls-2" d="m354.2,572.25c-1.95-61.57-3.9-122.98-5.89-185.92,3.14,1.82,5.1,2.72,6.79,3.97,8.88,6.56,15.7,14.84,20.4,24.85,11.08,23.6,19.33,48.17,23.78,73.86,4.35,25.11,8.03,50.34,11.95,75.52.38,2.41.37,4.89.53,7.2-5.17,1.69-47.57,2.14-57.57.52Z"/>
    <path class="cls-4" d="m141.02,93.61c26.17,9.17,30.75,9.61,51.7,6.61,6.93,7.58,13.13-7.75,24-6.73,10.91,1.02,20.19-11.19,28.18-18.93,8.24-2.67,51.68,6.37,34.71,14.44,7.27,9.65-9.11,36.59,2.93,39.34,3.95.9,3.09,3.11,3.07,6.76-.12,25.87-5.67,51.45-13.47,76.23-2.45,7.76-5.79,15.11-11.58,21.83-2.64-1.56-5.13-2.97-7.57-4.47-17.42-10.72-35.92-17.74-56.77-17.49-12.98.15-24.95,3.43-36.09,9.98-1.34.79-2.69,1.54-4.58,2.63-4.9-6.77-8.11-14.18-10.81-21.76-7.07-19.8-9.75-40.41-9.09-61.28.44-13.94,2.62-27.84,4.08-41.74.16-1.52.71-2.99,1.31-5.4Zm70.56,112.9c8.83-5.77,19.52-9.02,26.23-19.16-2.79-1.43-4.62-2.8-6.67-3.34-9.66-2.54-15.64-8.47-17.79-18.29-.27-1.22-1.4-2.26-2.61-4.1-2.08,4.41-.84,7.55.26,10.65,3.33,9.39,11.45,13.27,21.16,16.78-4.74,3.21-8.54,5.54-12.06,8.24-3.3,2.53-8.31,3.44-8.52,9.22Zm-25.06-76.42c-4.33-5.29-12.91-7.28-21.92-5.08-5.17,1.26-10.05,3.76-14.98,5.91-.66.29-.79,1.77-1.76,4.19,5.15-1.92,8.93-3.73,12.92-4.72,4.1-1.01,8.4-1.62,12.62-1.68,4.04-.06,8.1.81,13.13,1.38Zm40.46,2.21c4.87-1.39,8.52-2.82,12.31-3.4,3.72-.57,7.61-.69,11.34-.26,3.74.43,7.37,1.8,12.16,3.04-7.3-10.35-28.08-9.97-35.81.62Zm22.87,31.38c1.13-1.54,3.01-3.09,3.4-4.95.33-1.56-.7-3.82-1.86-5.12-.72-.81-3.26-1.06-4.14-.42-1.22.89-2.13,2.81-2.3,4.39-.32,2.93,1.2,5.03,4.89,6.11Zm-79.78-10.82c-.62,1.3-1.96,3.04-2.22,4.92-.38,2.7,1.97,5.31,4,5.25,2.2-.08,4.07-2.67,3.86-5.37-.22-2.8-2.32-5.07-5.64-4.8Z"/>
    <path class="cls-4" d="m7.75,552.83c4.41-26.24,8.49-52.54,13.64-78.63,3.9-19.74,11.18-38.54,19.53-56.84,7.85-17.2,20.31-29.65,38.53-35.79,1.02-.34,2.1-.52,3.15-.78,1.27,5.28-5.08,183.05-6.81,191.7-8.44,1.24-65.15.94-70.42-.49"/>
    <path class="cls-4" d="m354.2,572.25c-1.95-61.57-3.9-122.98-5.89-185.92,3.14,1.82,5.1,2.72,6.79,3.97,8.88,6.56,15.7,14.84,20.4,24.85,11.08,23.6,19.33,48.17,23.78,73.86,4.35,25.11,8.03,50.34,11.95,75.52.38,2.41.37,4.89.53,7.2-5.17,1.69-47.57,2.14-57.57.52Z"/>
    <path class="cls-4" d="m199.85,572.56c10.23-57.44,22.23-114.46,33.05-171.87,5.13,2.41,49.78,43.91,56.81,52.51-2.56,6.5-83.95,115.92-89.86,119.36Z"/>
    <path class="cls-4" d="m180.01,406.47c.84,5.21,1.66,9.78,2.29,14.38,5.42,39.57,10.77,79.15,16.23,118.71,1.07,7.73.15,15.16-2.23,23.43-1.41-1.49-2.4-2.25-3.04-3.24-19.89-30.95-39.74-61.92-59.6-92.9-.97-1.52-1.85-3.11-2.9-4.57-1.75-2.44-1.4-4.41.68-6.56,15.26-15.7,30.45-31.49,45.68-47.22.59-.61,1.41-1.01,2.88-2.04Z"/>
    <path class="cls-4" d="m249.84,325.78c1.53,1.38,3.33,2.55,4.53,4.18,4.96,6.71,9.82,13.51,14.54,20.39,1.64,2.4,3.28,4.99,4.08,7.74,5.77,19.88,11.33,39.83,17.13,60.37-6.32,3.72-12.25,7.21-18.45,10.86-3.55-3.27-6.72-6.12-9.81-9.05-7.54-7.13-14.84-14.53-22.65-21.36-3.81-3.33-4.47-6.77-3.52-11.35,3.44-16.56,6.7-33.15,10.04-49.73.75-3.72,1.55-7.43,2.32-11.14.6-.3,1.2-.61,1.8-.91Z"/>
    <path class="cls-4" d="m168.91,325.44c.81,5.61,1.43,9.82,2.02,14.03,2.48,17.65,4.86,35.32,7.49,52.94.75,5.05-.07,9.04-3.93,12.77-6.97,6.74-13.65,13.8-20.15,21-2.94,3.26-5.84,3.55-9.51,1.83-3.88-1.81-7.84-3.46-11.74-5.23-2.53-1.15-3.83-2.86-3.07-5.9,4.81-19.25,9.42-38.56,14.39-57.77.88-3.39,2.78-6.68,4.85-9.56,4.99-6.96,10.34-13.68,15.6-20.45.78-1,1.89-1.73,4.05-3.67Z"/>
    <path class="cls-4" d="m244.51,322.36c-24.16.59-47.47,1.17-71.71,1.77.76-13.89,1.46-26.8,2.21-40.48,23.09,4.68,45.48,3.21,68.09-5.23.48,14.85.93,28.85,1.42,43.94Z"/>
    <path class="cls-4" d="m205.56,379.8c-.55,2.38-1.01,4.47-1.52,6.55-1.88,7.67-3.77,15.33-5.65,22.99-.38,1.56-.93,3.53,1.28,3.71.9.07,2.52-1.69,2.86-2.89,1.66-5.81,3-11.71,4.45-17.58.47-.02.94-.03,1.42-.05.84,4.46,1.58,8.94,2.54,13.38.89,4.11.51,8.82,5.16,12.75,1.47-5.41-.25-9.42-.81-13.46-.58-4.25-1.37-8.46-2.05-12.69-.66-4.12-1.29-8.25-1.94-12.37.41-.18.83-.36,1.24-.54.81.81,2.05,1.47,2.37,2.44,3.44,10.27,6.86,20.55,9.96,30.92.66,2.23.37,4.92-.1,7.28-5.23,26.33-10.57,52.64-15.88,78.96-1.56,7.74-3.11,15.48-4.72,23.21-.44,2.12-1.09,4.2-2.65,6.22-3.12-22.69-6.23-45.38-9.45-68.81,6.28-1.06,12-2.05,17.72-3,3.14-.52,5.46-1.69,5.83-5.4.67-6.61-1.85-9.13-8.61-8.08-4.9.76-9.78,1.69-14.67,2.5-.41.07-.87-.15-2.12-.4-.7-4.5-1.07-9.4-2.29-14.07-2.01-7.68-.23-14.52,2.91-21.52,3.69-8.22,6.58-16.8,9.97-25.17.77-1.9.79-4.66,4.74-4.89Z"/>
    <path class="cls-4" d="m314.47,156.16q-5.25,1.09-11,9.93c-2.62,4.05-5.12,8.18-8.35,12.06-.05-7.91-.47-15.78,2.47-23.14,2.25-5.64,6.01-10.35,12.7-10.79,4.7-.31,9.11,4.65,10.95,12.23,3.11,12.83,1.67,25.21-5.38,36.5-4.46,7.14-10.95,11.3-19.83,10.52-.67-.06-1.34-.23-1.97-.46-.41-.14-.74-.48-1.41-.92-.99-6.59.86-12.69,4.51-18.32,5.04-7.76,10.19-15.44,15.25-23.19.69-1.06,1.09-2.32,2.06-4.42Z"/>
    <path class="cls-4" d="m125.33,201.95c-5.72,2.85-10.88,2.6-15.19-.89-3.77-3.05-7.53-6.63-9.93-10.76-6.27-10.83-7.14-22.67-3.94-34.68,1.42-5.35,3.9-10.31,10.25-11.29,4.76-.73,9.81,3.18,12.67,9.47.56,1.22,1.13,2.51,1.3,3.81.83,6.33,1.53,12.67,2.27,19.01-.51.2-1.02.4-1.52.59-2.51-3.85-4.85-7.83-7.57-11.52-2.64-3.58-3.68-8.76-10.24-10.25,1.02,2.36,1.5,3.96,2.35,5.32,4.77,7.64,9.62,15.24,14.48,22.83,3.51,5.48,4.66,11.56,5.08,18.36Z"/>
    <path class="cls-4" d="m209.4,332.25c4.96,9.59,9.65,17.76,13.44,26.32,2.47,5.58-3.65,14.79-9.93,16.2-8.78,1.97-19.06-6.29-18.81-15.31.05-1.68.98-3.46,1.88-4.98,4.1-6.96,8.34-13.85,13.42-22.24Z"/>
    <path class="cls-4" d="m174.87,328.5h30.46c-1.05,5.23-19.42,35.64-25,41.26-2.27-4.37-5.95-31.17-5.46-41.26Z"/>
    <path class="cls-4" d="m243.68,326.92c-2.88,14.23-5.59,27.59-8.37,41.32-4.39-3.64-16.6-25.35-22.81-40.23,10.21-.86,20.11-1.1,31.18-1.09Z"/>
    <path class="cls-4" d="m207.21,243.1c-9.86-.47-18.32-3.59-24.86-10.97-2.19-2.47-4.7-5.25-2.57-9,1.61-2.83,6.05-3.66,10.4-1.19,8.25,4.69,16.94,7.18,26.41,7.46,3.13.09,6.85.88,7.47,4.6.63,3.8-2.8,5.54-5.74,6.56-3.56,1.24-7.39,1.73-11.1,2.54Zm-23.01-19.57c.21,5.62,5.82,10.65,14.68,13.34,9.51,2.89,16.04,2.09,19.31-2.26-6.03-.53-12.47-.04-18.15-1.89-5.65-1.83-10.54-6-15.84-9.19Z"/>
    <path class="cls-4" d="m185.22,408.82c-1.41-9.08-2.95-17.51-3.91-26-.28-2.45.65-5.3,1.77-7.6,1.76-3.61,4.17-6.9,6.58-10.78,4.09,3.79,6.04,8.29,8.15,12.6.5,1.02.11,2.71-.34,3.91-3.29,8.89-6.69,17.73-10.1,26.57-.12.32-.72.45-2.14,1.29Z"/>
    <path class="cls-4" d="m226.59,403.97c-2.43-7.45-4.98-14.86-7.2-22.37-.46-1.54-.22-3.74.59-5.11,1.91-3.24,4.35-6.16,6.92-9.67,4.47,5.77,7.18,11.18,5.33,18.29-1.62,6.22-2.56,12.6-3.81,18.92-.61-.02-1.22-.04-1.83-.06Z"/>
    <path class="cls-4" d="m210.54,447.6c1.13,2.99-.39,4.04-2.22,4.44-4.78,1.04-9.59,1.94-14.42,2.67-.8.12-2.27-.73-2.53-1.45-.23-.64.61-2.37,1.26-2.54,5.94-1.53,11.93-2.89,17.91-3.12Z"/>
    <path class="cls-2" d="m211.58,206.51c.21-5.78,5.22-6.69,8.52-9.22,3.52-2.7,7.33-5.03,12.06-8.24-9.71-3.51-17.83-7.39-21.16-16.78-1.1-3.1-2.34-6.24-.26-10.65,1.21,1.85,2.34,2.88,2.61,4.1,2.15,9.82,8.13,15.75,17.79,18.29,2.05.54,3.89,1.91,6.67,3.34-6.71,10.13-17.4,13.39-26.23,19.16Z"/>
    <path class="cls-2" d="m187.97,130.12c-5.4-.62-9.76-1.55-14.11-1.49-4.54.06-9.15.71-13.56,1.8-4.28,1.06-8.35,3-13.88,5.07,1.05-2.59,1.19-4.19,1.89-4.5,5.29-2.31,10.54-4.99,16.1-6.35,9.68-2.37,18.91-.22,23.56,5.46Z"/>
    <path class="cls-2" d="m224.11,132.95c8.97-12.28,33.09-12.73,41.55-.72-5.56-1.44-9.77-3.03-14.11-3.53-4.33-.5-8.85-.36-13.16.3-4.39.68-8.63,2.33-14.28,3.94Z"/>
    <path class="cls-2" d="m250.15,165.92c-5.21-1.52-7.37-4.5-6.92-8.64.24-2.23,1.53-4.94,3.25-6.2,1.24-.91,4.83-.55,5.85.59,1.63,1.85,3.09,5.04,2.63,7.24-.56,2.64-3.22,4.83-4.81,7Z"/>
    <path class="cls-2" d="m169.22,150.32c4.97-.4,8.12,3.01,8.46,7.2.32,4.04-2.48,7.93-5.79,8.05-3.05.1-6.56-3.81-6-7.87.39-2.83,2.4-5.44,3.33-7.38Z"/>
    <path class="cls-2" d="m184.2,223.53c5.3,3.19,10.19,7.36,15.84,9.19,5.68,1.84,12.12,1.36,18.15,1.89-3.27,4.35-9.8,5.16-19.31,2.26-8.86-2.69-14.46-7.73-14.68-13.34Z"/>
    <path class="cls-1" d="m285.61,36.63S208.51-28.62,162.45,15.92c0,0-26.24,10.9-43.99,51.93,0,0-14.72,29.27-6.25,54.59,0,0,6.48,4.34,1.44,22.03,0,0-9.05,12.76-14.12,9.7,0,0-.93,24.63,19.29,22.49,0,0,13.79,3.18,16.47-21.34,2.68-24.52,3.33-45.29,3.33-45.29l5.06-5.55s70.93,12.07,91.93-17.32c0,0,28.38,4.44,35.21-12.33,0,0-10.95,26.67,4.99,38.33,0,0-.88,33.22,7.35,36.05,0,0-11.44,26.62,1.66,34.09,0,0,13.41,5.05,21.42-8.73,0,0-8.99-13.4-8.06-26.69,0,0,20.57-20.4,15.51-41.9,0,0,4.87-60.33-28.07-69.35Z"/>
    <g>
      <path class="cls-2" d="m124.7,77.95c-11.92-11.11-8.51-31.82-2.17-44.88,2.06-4.24,5.1-7.94,9.43-9.97,10.15-4.75,24.53-3.54,35.17-1.62,1.56.28,3.4.85,3.82,2.38"/>
      <path class="cls-2" d="m124.87,77.79c-4.18-4.45-6.52-10.08-7.16-16.12s.16-12.49,1.85-18.46c.81-2.84,1.81-5.64,3.03-8.32,1.37-3.02,3.07-5.89,5.53-8.17s5.77-3.71,9.11-4.6,7.1-1.33,10.71-1.44,7.31.09,10.94.47c1.75.19,3.5.42,5.24.69,1.52.24,3.22.36,4.64.97.57.24,1.19.61,1.41,1.23.34.98,1.88.64,1.59-.4-.48-1.69-2.04-2.49-3.64-2.87-1.69-.41-3.45-.62-5.16-.86-3.75-.54-7.54-.9-11.33-.98s-7.77.12-11.59.8c-3.53.63-7.21,1.66-10.27,3.59-5.87,3.7-8.85,10.35-10.92,16.72s-3.13,12.76-2.73,19.26,2.35,12.55,6.68,17.21c.53.58,1.13,1.1,1.74,1.6.22.18.54-.1.33-.32h0Z"/>
    </g>
  </g>
  <line class="cls-3" x1="1.1" y1="571.28" x2=".26" y2="576.3"/>
  <path class="cls-2" d="m1.18,570.55v2.26c0,.64.99.65.99.01v-1.12c0-.64-.99-.65-.99-.01v4.78c0,.64.99.65.99.01v-4.78c0-.64-.99-.65-.99-.01v1.12h.99v-2.25c0-.64-.99-.65-.99-.01h0Z"/>
  <path class="cls-2" d="m15.64,575.99H.68c-.64,0-.65.99-.01.99h14.96c.64,0,.65-.99.01-.99h0Z"/>
  <path class="cls-2" d="m1.14,570.85v5.16c0,.64.99.65.99.01v-.38c0-.64-.99-.65-.99-.01v.38c0,.64.99.65.99.01v-5.16c0-.64-.99-.65-.99-.01h0Z"/>
  <path class="cls-2" d="m13.09,575.29c-1.07.08-2.14.05-3.2-.1l-.14.97c1.43-.1,2.86-.12,4.28.14l.14-.97-7.22.07v.99c1.08-.03,2.17-.07,3.26-.1v-.99c-1.31.05-2.64.05-3.97-.03s-2.59-.26-3.89-.08l.62.49c-.16-1.52,0-3,.47-4.45.09-.27-.11-.52-.34-.61-1.12-.45-1.17,1.53-1.15,2.15.03,1.04.48,1.99,1.46,2.43,1.04.47,2.29.44,3.4.37,1.36-.08,2.72-.21,4.08-.37l-.11-.98c-.93.14-1.86.28-2.78.42-.55.08-.45,1.02.11.98,1.34-.09,2.68-.12,4.02-.08v-.99c-1.57-.01-3.15-.02-4.73-.03-.75,0-1.5-.02-2.26,0-.41,0-.82.03-1.23.07-.31.03-.69.17-1,.13l.35.15s.23-1.1.28-1.31c.12-.52.24-1.04.38-1.55l-.97-.14c-.39,3.35,4.41,2.93,6.47,2.88l-.11-.98c-1.12.17-2.26.26-3.39.25-.49,0-1.07.04-1.54-.07-.37-.08-.34-.2-.38-.6-.03-.28-.02-.56,0-.84l-.63.47c1.56.64,3.13,1.24,4.83,1.3.55.02.7-.87.14-.97l-3.2-.61c-.62-.12-.9.84-.27.96l3.2.61.14-.97c-1.61-.06-3.1-.66-4.57-1.27-.31-.13-.61.19-.63.47-.04.61-.07,1.55.29,2.08.31.47,1.14.37,1.62.4,1.55.08,3.1-.01,4.64-.25.56-.09.44-.99-.11-.98-1.19.02-2.38.05-3.57-.09-1.06-.13-2.07-.54-1.92-1.79.06-.56-.83-.68-.97-.14-.15.59-.3,1.18-.43,1.78-.1.48-.33,1.07-.25,1.57.06.35.31.61.67.63.55.04,1.16-.17,1.73-.2,2.47-.1,4.97.01,7.45.03.64,0,.65-.97.01-.99-1.34-.04-2.68-.01-4.02.08l.11.98c.93-.14,1.86-.28,2.78-.42.55-.08.45-1.04-.11-.98-1.73.2-3.51.43-5.25.39-.75-.02-1.83-.05-2.35-.69-.24-.29-.33-.67-.35-1.03-.02-.22,0-.44.02-.66.01-.14.03-.28.05-.42.11-.21.05-.29-.18-.23l-.34-.61c-.5,1.52-.67,3.11-.51,4.71.04.34.27.54.62.49,1.28-.18,2.59.05,3.87.12s2.5.07,3.75.02c.63-.03.65-1.01.01-.99l-3.27.1c-.64.02-.65,1-.01.99l7.22-.07c.54,0,.71-.87.14-.97-1.5-.27-3.01-.28-4.53-.18-.52.04-.73.89-.14.97,1.15.17,2.29.22,3.45.14.63-.05.65-1.04.01-.99h0Z"/>
  <path class="cls-2" d="m1.15,571.42v.02c.02-.08.05-.17.07-.25l-.02.04.19-.18-.04.02.24-.06h-.04c.14.08.29.17.43.26l-.03-.04.04.37v-.04c-.07.1-.15.2-.23.3l.04-.02-.72-.57c-.35,1.7-.71,3.4-1.06,5.1-.05.26.07.54.34.61.25.07.56-.08.61-.34.35-1.7.71-3.4,1.06-5.1.09-.42-.32-.77-.72-.57-.45.23-.36.93.15,1.02s.75-.39.65-.81c-.15-.62-1.11-.38-.96.24h0Z"/>
</svg>